<svg width="16" height="15" viewBox="0 0 16 15" fill="none" xmlns="http://www.w3.org/2000/svg">
<g id="Group">
<path id="Vector" d="M15.3602 11.4245L9.6516 1.71193C9.31486 1.12759 8.68949 0.780151 7.99997 0.780151C7.31045 0.780151 6.70111 1.12759 6.34833 1.71193L0.639763 11.4245C0.303022 12.0089 0.303022 12.7037 0.639763 13.2881C0.976505 13.8724 1.60188 14.2198 2.2914 14.2198H13.7085C14.3981 14.2198 15.0074 13.8724 15.3602 13.2881C15.6969 12.7037 15.6969 12.0089 15.3602 11.4245ZM14.3018 12.7037C14.2537 12.7985 14.0773 13.0354 13.7085 13.0354H2.2914C1.93862 13.0354 1.76223 12.7985 1.69809 12.7037C1.63395 12.609 1.52171 12.3247 1.69809 12.0246L7.40666 2.32785C7.58305 2.02779 7.88772 1.9962 7.99997 1.9962C8.11222 1.9962 8.41689 2.02779 8.59328 2.32785L14.3018 12.0246C14.4943 12.3247 14.366 12.5932 14.3018 12.7037Z" fill="#B20002"/>
<path id="Vector_2" d="M7.96786 9.63992C8.30461 9.65572 8.59325 9.40303 8.59325 9.07138L8.7536 5.15472C8.7536 5.13892 8.7536 5.10734 8.7536 5.09155C8.73757 4.66514 8.36875 4.34928 7.95183 4.36507C7.51887 4.38086 7.19816 4.7441 7.2142 5.15472L7.37455 9.07138C7.40662 9.37144 7.66319 9.62413 7.96786 9.63992Z" fill="#B20002"/>
<path id="Vector_3" d="M7.99994 11.9299C8.47817 11.9299 8.86584 11.5481 8.86584 11.0771C8.86584 10.6061 8.47817 10.2242 7.99994 10.2242C7.52171 10.2242 7.13403 10.6061 7.13403 11.0771C7.13403 11.5481 7.52171 11.9299 7.99994 11.9299Z" fill="#B20002"/>
</g>
</svg>
