<svg width="16" height="14" viewBox="0 0 16 14" fill="none" xmlns="http://www.w3.org/2000/svg">
<g id="Group">
<path id="Vector" d="M15.3602 10.9245L9.6516 1.21193C9.31486 0.627594 8.68949 0.280151 7.99997 0.280151C7.31045 0.280151 6.70111 0.627594 6.34833 1.21193L0.639763 10.9245C0.303022 11.5089 0.303022 12.2037 0.639763 12.7881C0.976505 13.3724 1.60188 13.7198 2.2914 13.7198H13.7085C14.3981 13.7198 15.0074 13.3724 15.3602 12.7881C15.6969 12.2037 15.6969 11.5089 15.3602 10.9245ZM14.3018 12.2037C14.2537 12.2985 14.0773 12.5354 13.7085 12.5354H2.2914C1.93862 12.5354 1.76223 12.2985 1.69809 12.2037C1.63395 12.109 1.52171 11.8247 1.69809 11.5246L7.40666 1.82785C7.58305 1.52779 7.88772 1.4962 7.99997 1.4962C8.11222 1.4962 8.41689 1.52779 8.59328 1.82785L14.3018 11.5246C14.4943 11.8247 14.366 12.0932 14.3018 12.2037Z" fill="white"/>
<path id="Vector_2" d="M7.96786 9.13992C8.30461 9.15572 8.59325 8.90303 8.59325 8.57138L8.7536 4.65472C8.7536 4.63892 8.7536 4.60734 8.7536 4.59155C8.73757 4.16514 8.36875 3.84928 7.95183 3.86507C7.51887 3.88086 7.19816 4.2441 7.2142 4.65472L7.37455 8.57138C7.40662 8.87144 7.66319 9.12413 7.96786 9.13992Z" fill="white"/>
<path id="Vector_3" d="M7.99994 11.4299C8.47817 11.4299 8.86584 11.0481 8.86584 10.5771C8.86584 10.1061 8.47817 9.72424 7.99994 9.72424C7.52171 9.72424 7.13403 10.1061 7.13403 10.5771C7.13403 11.0481 7.52171 11.4299 7.99994 11.4299Z" fill="white"/>
</g>
</svg>
