<svg width="20" height="20" viewBox="0 0 20 20" fill="none" xmlns="http://www.w3.org/2000/svg">
<rect width="20" height="20" fill="#D9D9D9"/>
<path d="M-306 -4253C-306 -4286.14 -279.137 -4313 -246 -4313H1142C1175.14 -4313 1202 -4286.14 1202 -4253V1311C1202 1319.84 1194.84 1327 1186 1327H-290C-298.837 1327 -306 1319.84 -306 1311V-4253Z" fill="white"/>
<g filter="url(#filter0_b_2755_3104)">
<rect x="-108" y="-272" width="780" height="552" rx="10" fill="white"/>
<g clip-path="url(#clip0_2755_3104)">
<mask id="path-3-inside-1_2755_3104" fill="white">
<path d="M-36 -18H104V38H-36V-18Z"/>
</mask>
<path d="M-36 -18V-20H-38V-18H-36ZM-36 38H-38V40H-36V38ZM-36 -16H104V-20H-36V-16ZM104 36H-36V40H104V36ZM-34 38V-18H-38V38H-34Z" fill="#304FFE" mask="url(#path-3-inside-1_2755_3104)"/>
<path d="M6.68952 16.1039C6.68952 16.1867 6.59677 16.2529 6.47983 16.2529C6.34678 16.2653 6.25403 16.1991 6.25403 16.1039C6.25403 16.0213 6.34678 15.9551 6.46371 15.9551C6.58468 15.9427 6.68952 16.0089 6.68952 16.1039ZM5.43548 15.9179C5.40726 16.0006 5.48791 16.0957 5.60887 16.1206C5.71371 16.1618 5.83467 16.1206 5.85887 16.0378C5.88307 15.9551 5.80645 15.86 5.68548 15.8227C5.58065 15.7938 5.46371 15.8351 5.43548 15.9179ZM7.21774 15.8475C7.10081 15.8765 7.02016 15.9551 7.03226 16.0503C7.04436 16.1329 7.14919 16.1867 7.27016 16.1577C7.3871 16.1288 7.46775 16.0503 7.45565 15.9675C7.44355 15.8889 7.33468 15.8351 7.21774 15.8475ZM9.87097 0C4.27822 0 0 4.35477 0 10.0908C0 14.6772 2.81451 18.6019 6.83467 19.9832C7.3508 20.0782 7.53226 19.7516 7.53226 19.4827C7.53226 19.2264 7.52016 17.812 7.52016 16.9435C7.52016 16.9435 4.69758 17.5638 4.10484 15.7111C4.10484 15.7111 3.64516 14.5076 2.98387 14.1975C2.98387 14.1975 2.06048 13.5482 3.04838 13.5606C3.04838 13.5606 4.05242 13.6433 4.60484 14.6276C5.48791 16.2239 6.96774 15.7648 7.54435 15.4919C7.6371 14.8302 7.89919 14.3711 8.18951 14.0982C5.93548 13.8418 3.6613 13.5068 3.6613 9.52839C3.6613 8.39111 3.96774 7.8204 4.6129 7.09253C4.50807 6.82372 4.16533 5.71538 4.71774 4.28447C5.56048 4.01566 7.49999 5.40107 7.49999 5.40107C8.30646 5.16948 9.17339 5.04955 10.0322 5.04955C10.8911 5.04955 11.758 5.16948 12.5645 5.40107C12.5645 5.40107 14.5041 4.01152 15.3468 4.28447C15.8991 5.71951 15.5564 6.82372 15.4516 7.09253C16.0967 7.82453 16.492 8.39525 16.492 9.52839C16.492 13.5192 14.117 13.8377 11.8629 14.0982C12.2339 14.4249 12.5484 15.0452 12.5484 16.0171C12.5484 17.4108 12.5363 19.1353 12.5363 19.4745C12.5363 19.7433 12.7218 20.07 13.2339 19.9749C17.2662 18.6019 20 14.6772 20 10.0908C20 4.35477 15.4637 0 9.87097 0ZM3.91936 14.2637C3.86693 14.305 3.87903 14.4002 3.94758 14.4787C4.0121 14.5449 4.10484 14.5738 4.15725 14.52C4.20967 14.4787 4.19758 14.3835 4.12903 14.305C4.06452 14.2388 3.97178 14.2099 3.91936 14.2637ZM3.48387 13.9287C3.45565 13.9824 3.49597 14.0486 3.57661 14.09C3.64112 14.1313 3.72178 14.1189 3.75 14.0611C3.77823 14.0073 3.7379 13.9411 3.65726 13.8997C3.57661 13.8749 3.51209 13.8873 3.48387 13.9287ZM4.79032 15.401C4.7258 15.4547 4.75 15.5787 4.84275 15.6574C4.93548 15.7524 5.05242 15.7648 5.10484 15.6987C5.15725 15.6449 5.13307 15.5209 5.05242 15.4422C4.96371 15.3472 4.84275 15.3348 4.79032 15.401ZM4.33064 14.793C4.26613 14.8343 4.26613 14.9419 4.33064 15.037C4.39516 15.1321 4.50403 15.1734 4.55645 15.1321C4.62097 15.0784 4.62097 14.9708 4.55645 14.8757C4.50001 14.7806 4.39516 14.7393 4.33064 14.793Z" fill="black"/>
</g>
</g>
<defs>
<filter id="filter0_b_2755_3104" x="-123" y="-287" width="810" height="582" filterUnits="userSpaceOnUse" color-interpolation-filters="sRGB">
<feFlood flood-opacity="0" result="BackgroundImageFix"/>
<feGaussianBlur in="BackgroundImageFix" stdDeviation="7.5"/>
<feComposite in2="SourceAlpha" operator="in" result="effect1_backgroundBlur_2755_3104"/>
<feBlend mode="normal" in="SourceGraphic" in2="effect1_backgroundBlur_2755_3104" result="shape"/>
</filter>
<clipPath id="clip0_2755_3104">
<rect width="152" height="56" fill="white" transform="translate(-36 -18)"/>
</clipPath>
</defs>
</svg>
