<svg width="20" height="20" viewBox="0 0 20 20" fill="none" xmlns="http://www.w3.org/2000/svg">
<g id="Property 1=invisible">
<path id="Vector" d="M20 10C20 10 16.25 3.125 10 3.125C3.75 3.125 0 10 0 10C0 10 3.75 16.875 10 16.875C16.25 16.875 20 10 20 10ZM1.46625 10C2.06973 9.08073 2.76496 8.2251 3.54125 7.44625C5.15 5.835 7.35 4.375 10 4.375C12.65 4.375 14.8488 5.835 16.46 7.44625C17.2363 8.2251 17.9315 9.08073 18.535 10C18.4633 10.1083 18.3821 10.2283 18.2913 10.36C17.8725 10.96 17.2537 11.76 16.46 12.5538C14.8488 14.165 12.6488 15.625 10 15.625C7.35125 15.625 5.15125 14.165 3.54 12.5538C2.76371 11.7749 2.06973 10.9193 1.46625 10Z" fill="#757575"/>
<path id="Vector_2" d="M10 6.875C9.1712 6.875 8.37634 7.20424 7.79029 7.79029C7.20424 8.37634 6.875 9.1712 6.875 10C6.875 10.8288 7.20424 11.6237 7.79029 12.2097C8.37634 12.7958 9.1712 13.125 10 13.125C10.8288 13.125 11.6237 12.7958 12.2097 12.2097C12.7958 11.6237 13.125 10.8288 13.125 10C13.125 9.1712 12.7958 8.37634 12.2097 7.79029C11.6237 7.20424 10.8288 6.875 10 6.875ZM5.625 10C5.625 8.83968 6.08594 7.72688 6.90641 6.90641C7.72688 6.08594 8.83968 5.625 10 5.625C11.1603 5.625 12.2731 6.08594 13.0936 6.90641C13.9141 7.72688 14.375 8.83968 14.375 10C14.375 11.1603 13.9141 12.2731 13.0936 13.0936C12.2731 13.9141 11.1603 14.375 10 14.375C8.83968 14.375 7.72688 13.9141 6.90641 13.0936C6.08594 12.2731 5.625 11.1603 5.625 10Z" fill="#757575"/>
<path id="Vector_3" d="M16.6989 14.0475C18.8252 12.15 20.0002 10 20.0002 10C20.0002 10 16.2502 3.125 10.0002 3.125C8.79958 3.12814 7.61246 3.37833 6.5127 3.86L7.4752 4.82375C8.28486 4.53031 9.13901 4.37851 10.0002 4.375C12.6502 4.375 14.8489 5.835 16.4602 7.44625C17.2365 8.2251 17.9317 9.08073 18.5352 10C18.4635 10.1083 18.3823 10.2283 18.2914 10.36C17.8727 10.96 17.2539 11.76 16.4602 12.5538C16.2544 12.7604 16.0389 12.9629 15.8139 13.1613L16.6989 14.0475Z" fill="#757575"/>
<path id="Vector_4" d="M14.1212 11.47C14.4001 10.6898 14.4518 9.84639 14.2702 9.03798C14.0885 8.22957 13.6811 7.48936 13.0952 6.90348C12.5093 6.3176 11.7691 5.91013 10.9607 5.72849C10.1523 5.54685 9.3089 5.59851 8.5287 5.87745L9.55745 6.9062C10.0378 6.83745 10.5276 6.88151 10.988 7.03491C11.4484 7.18831 11.8668 7.44682 12.2099 7.78997C12.5531 8.13312 12.8116 8.55147 12.965 9.01187C13.1184 9.47227 13.1625 9.96207 13.0937 10.4425L14.1212 11.47ZM10.4425 13.0937L11.47 14.1212C10.6898 14.4001 9.84639 14.4518 9.03798 14.2702C8.22957 14.0885 7.48936 13.6811 6.90348 13.0952C6.3176 12.5093 5.91013 11.7691 5.72849 10.9607C5.54685 10.1523 5.59851 9.3089 5.87745 8.5287L6.9062 9.55745C6.83745 10.0378 6.88151 10.5276 7.03491 10.988C7.18831 11.4484 7.44682 11.8668 7.78997 12.2099C8.13312 12.5531 8.55147 12.8116 9.01187 12.965C9.47227 13.1184 9.96207 13.1625 10.4425 13.0937Z" fill="#757575"/>
<path id="Vector_5" d="M4.1875 6.78C3.9625 6.98 3.74667 7.18292 3.54 7.38875C2.76371 8.1676 2.06848 9.02323 1.465 9.9425L1.70875 10.3025C2.1275 10.9025 2.74625 11.7025 3.54 12.4963C5.15125 14.1075 7.35125 15.5675 10 15.5675C10.895 15.5675 11.7375 15.4013 12.525 15.1175L13.4875 16.0825C12.3877 16.5642 11.2006 16.8144 10 16.8175C3.75 16.8175 0 9.9425 0 9.9425C0 9.9425 1.17375 7.79125 3.30125 5.895L4.18625 6.78125L4.1875 6.78ZM17.0575 17.885L2.0575 2.885L2.9425 2L17.9425 17L17.0575 17.885Z" fill="#757575"/>
</g>
</svg>
